<svg xmlns="http://www.w3.org/2000/svg" viewBox="0 0 512 512">
  <defs>
    <linearGradient id="bgGrad" x1="0%" y1="0%" x2="100%" y2="100%">
      <stop offset="0%" style="stop-color:#2563eb"/>
      <stop offset="100%" style="stop-color:#1d4ed8"/>
    </linearGradient>
  </defs>
  <!-- Background -->
  <rect width="512" height="512" rx="96" fill="url(#bgGrad)"/>
  <!-- Shield with checkmark -->
  <path d="M256 80c-8 0-16 2-23 6l-120 60c-14 7-23 22-23 38v96c0 88 60 152 143 176 8 2 16 2 24 0 83-24 143-88 143-176v-96c0-16-9-31-23-38l-120-60c-7-4-15-6-23-6z" fill="white" fill-opacity="0.2"/>
  <path d="M256 100c-6 0-12 1-17 4l-100 50c-10 5-17 16-17 28v80c0 73 50 126 119 146 6 2 12 2 18 0 69-20 119-73 119-146v-80c0-12-7-23-17-28l-100-50c-5-3-11-4-17-4z" fill="white"/>
  <!-- Checkmark -->
  <path d="M232 300l-56-56c-8-8-8-20 0-28s20-8 28 0l42 42 86-86c8-8 20-8 28 0s8 20 0 28l-100 100c-8 8-20 8-28 0z" fill="#2563eb"/>
</svg>
